# xmcd
#
# Track frame offsets:
#	150
#	11465
#	21705
#	33240
#	44430
#	57602
#	68025
#	79225
#	92310
#	100120
#	118357
#	132825
#
# Disc length: 1857
#
# Revision: 1
# Processed by: cddbd v1.5.1PL0 Copyright (c) Steve Scherf et al.
# Submitted via: FreeRIP 2.60 
# Normalized: r0:TRMNUM
#
DISCID=9f073f0c
DTITLE=Three Hanks - Men With Broken Hearts
DYEAR=1900
DGENRE=Country
TTITLE0=I`ll Never Get Out Of This World Alive
TTITLE1=Move It On Over
TTITLE2=Moanin` The Blues
TTITLE3=Never Again (Will I Knock On Your Door)
TTITLE4=I`M A Long Gone Daddy
TTITLE5=Honkey Tonk Blues
TTITLE6=I Won`t Be Home No More
TTITLE7=`Neath A Cold Gray Tomb Of Stone
TTITLE8=Where The Sole Of Man Never Dies
TTITLE9=Hand Me Down
TTITLE10=Men With Broken Hearts
TTITLE11=Lost Highway
EXTD=Dubb C.D Hank Williams SR\nHank JR And Hank The Third
EXTT0=
EXTT1=
EXTT2=
EXTT3=
EXTT4=
EXTT5=
EXTT6=
EXTT7=
EXTT8=
EXTT9=
EXTT10=
EXTT11=
PLAYORDER=
